<svg width="132" height="47" viewBox="0 0 132 47" fill="none" xmlns="http://www.w3.org/2000/svg">
<path d="M6.1875 32.8125V24.125H16.875C19.2917 24.125 21.1771 23.5104 22.5312 22.2812C23.9062 21.0521 24.5938 19.2708 24.5938 16.9375V16.875C24.5938 14.5208 23.9062 12.7396 22.5312 11.5312C21.1771 10.3229 19.2917 9.71875 16.875 9.71875H6.1875V0.90625H19.625C22.9792 0.90625 25.8958 1.57292 28.375 2.90625C30.8542 4.21875 32.7708 6.07292 34.125 8.46875C35.5 10.8438 36.1875 13.6458 36.1875 16.875V16.9375C36.1875 20.1458 35.5 22.9479 34.125 25.3438C32.7708 27.7188 30.8542 29.5625 28.375 30.875C25.8958 32.1667 22.9792 32.8125 19.625 32.8125H6.1875ZM0.40625 46V0.90625H11.875V46H0.40625Z" fill="white"/>
<path d="M62.2812 46.8125C57.7396 46.8125 53.8021 45.8646 50.4688 43.9688C47.1354 42.0729 44.5625 39.3854 42.75 35.9062C40.9375 32.4062 40.0312 28.2604 40.0312 23.4688V23.4062C40.0312 18.6146 40.9375 14.4792 42.75 11C44.5833 7.52083 47.1667 4.83333 50.5 2.9375C53.8333 1.04167 57.7604 0.09375 62.2812 0.09375C66.8646 0.09375 70.8229 1.04167 74.1562 2.9375C77.4896 4.83333 80.0521 7.52083 81.8438 11C83.6562 14.4792 84.5625 18.6146 84.5625 23.4062V23.4688C84.5625 28.2604 83.6562 32.4062 81.8438 35.9062C80.0521 39.3854 77.4896 42.0729 74.1562 43.9688C70.8438 45.8646 66.8854 46.8125 62.2812 46.8125ZM62.2812 37.3125C64.4896 37.3125 66.375 36.75 67.9375 35.625C69.5208 34.4792 70.7396 32.875 71.5938 30.8125C72.4479 28.7292 72.875 26.2812 72.875 23.4688V23.4062C72.875 20.5729 72.4375 18.125 71.5625 16.0625C70.7083 14 69.4896 12.4062 67.9062 11.2812C66.3229 10.1562 64.4479 9.59375 62.2812 9.59375C60.1771 9.59375 58.3229 10.1562 56.7188 11.2812C55.1354 12.3854 53.9062 13.9688 53.0312 16.0312C52.1771 18.0938 51.75 20.5521 51.75 23.4062V23.4688C51.75 26.3021 52.1771 28.7604 53.0312 30.8438C53.9062 32.9062 55.1354 34.5 56.7188 35.625C58.3021 36.75 60.1562 37.3125 62.2812 37.3125Z" fill="white"/>
<path d="M110.844 46.8125C106.344 46.8125 102.448 45.8854 99.1562 44.0312C95.8854 42.1771 93.3542 39.5104 91.5625 36.0312C89.7917 32.5312 88.9062 28.3333 88.9062 23.4375V23.4062C88.9062 18.5104 89.8021 14.3229 91.5938 10.8438C93.3854 7.36458 95.9167 4.70833 99.1875 2.875C102.479 1.02083 106.365 0.09375 110.844 0.09375C114.781 0.09375 118.25 0.864583 121.25 2.40625C124.271 3.94792 126.646 6.05208 128.375 8.71875C130.125 11.3854 131.062 14.4062 131.188 17.7812L131.219 18.0625H120.156L120.094 17.625C119.844 16.0417 119.323 14.6562 118.531 13.4688C117.76 12.2604 116.729 11.3125 115.438 10.625C114.146 9.9375 112.615 9.59375 110.844 9.59375C108.76 9.59375 106.948 10.1458 105.406 11.25C103.885 12.3542 102.708 13.9375 101.875 16C101.042 18.0417 100.625 20.5 100.625 23.375V23.4062C100.625 26.3021 101.042 28.7917 101.875 30.875C102.708 32.9583 103.896 34.5521 105.438 35.6562C106.979 36.7604 108.792 37.3125 110.875 37.3125C112.542 37.3125 114.021 36.9896 115.312 36.3438C116.604 35.6771 117.667 34.7396 118.5 33.5312C119.333 32.3021 119.885 30.8438 120.156 29.1562L120.219 28.8438H131.25V29.1875C131.104 32.5417 130.146 35.5521 128.375 38.2188C126.625 40.8646 124.24 42.9583 121.219 44.5C118.219 46.0417 114.76 46.8125 110.844 46.8125Z" fill="white"/>
</svg>
