<svg width="37" height="27" viewBox="0 0 37 27" fill="none" xmlns="http://www.w3.org/2000/svg">
  <path d="M11.5998 1.19208C12.0322 0.867779 12.5066 0.606538 13.0141 0.414361C13.6537 0.198161 14.3203 0.0630363 14.9929 0.00598363H29.9167C29.9167 0.00598363 32.3429 -0.177186 34.3127 1.48335C36.2826 3.14388 36.1985 4.28493 36.0543 4.66629C35.9012 4.99058 35.709 5.29386 35.4808 5.57012L30.229 11.0202C29.8116 11.3084 29.3191 11.4736 28.8117 11.4916C28.3312 11.5066 27.8628 11.3174 27.5295 10.9691L24.0282 7.59699C24.0282 7.59699 23.4727 7.03547 22.7941 7.03547C22.1155 7.03547 21.593 7.62401 21.593 7.62401L13.4134 16.0738C13.3204 16.2059 13.1732 16.287 13.0141 16.302C12.7829 16.293 12.5366 15.9987 12.5366 15.9987L6.68423 10.0172C6.68423 10.0172 6.1047 9.36863 6.09869 8.11047C6.09268 6.8523 6.56412 6.23073 6.56412 6.23073L11.5998 1.19508V1.19208Z" fill="url(#paint0_linear_10163_15066)"/>
  <path d="M27.5297 10.9661L24.0285 7.59397C24.0285 7.59397 23.473 7.03545 22.7944 7.03245C22.1157 7.02945 21.5933 7.62099 21.5933 7.62099L21.2119 8.01736C21.2119 8.01736 24.2267 3.96362 28.4486 2.3211C30.7157 1.41426 33.265 1.52837 35.4451 2.63639C36.2378 3.67235 36.1627 4.381 36.0546 4.66627C35.9015 4.99057 35.7093 5.29385 35.4811 5.5701L30.2322 11.0201C29.8149 11.3084 29.3224 11.4735 28.8149 11.4916H28.7729C28.3045 11.4946 27.857 11.3054 27.5297 10.9691V10.9661Z" fill="url(#paint1_linear_10163_15066)"/>
  <path d="M24.5204 25.4244C24.088 25.7487 23.6136 26.0099 23.1061 26.2021C22.4665 26.4183 21.7999 26.5564 21.1273 26.6105H6.2035C6.2035 26.6105 3.77726 26.7937 1.80744 25.1331C-0.162375 23.4726 -0.0782974 22.3315 0.0658357 21.9502C0.218977 21.6259 0.411154 21.3226 0.639365 21.0464L5.88821 15.5963C6.3056 15.3081 6.79805 15.1429 7.30552 15.1249C7.78596 15.1099 8.25439 15.2991 8.5877 15.6474L12.0889 19.0195C12.0889 19.0195 12.6444 19.581 13.3231 19.581C14.0017 19.581 14.5242 18.9925 14.5242 18.9925L22.7037 10.5427C22.7968 10.4105 22.944 10.3295 23.1031 10.3145C23.3343 10.3235 23.5805 10.6177 23.5805 10.6177L29.4329 16.5963C29.4329 16.5963 30.0125 17.2449 30.0215 18.506C30.0305 19.7642 29.5531 20.3888 29.5531 20.3888L24.5174 25.4214L24.5204 25.4244Z" fill="url(#paint2_linear_10163_15066)"/>
  <path d="M8.59408 15.6503L12.0953 19.0224C12.0953 19.0224 12.6508 19.5809 13.3294 19.5839C14.0081 19.5869 14.5306 18.9954 14.5306 18.9954L14.9119 18.599C14.9119 18.599 11.8971 22.6527 7.67523 24.2953C5.40814 25.2021 2.85879 25.088 0.678773 23.98C-0.113959 22.944 -0.0388896 22.2354 0.0692102 21.9501C0.222352 21.6258 0.414529 21.3225 0.64274 21.0463L5.89159 15.5962C6.30897 15.308 6.80142 15.1428 7.30889 15.1248H7.35093C7.81937 15.1218 8.26678 15.308 8.59408 15.6473V15.6503Z" fill="url(#paint3_linear_10163_15066)"/>
  <defs>
    <linearGradient id="paint0_linear_10163_15066" x1="-1.56703" y1="0.420486" x2="14.3742" y2="18.7714" gradientUnits="userSpaceOnUse">
      <stop offset="0.4" stop-color="#262C34"/>
      <stop offset="0.82" stop-color="#4C6278"/>
    </linearGradient>
    <linearGradient id="paint1_linear_10163_15066" x1="25.4462" y1="2.55712" x2="28.9053" y2="11.4702" gradientUnits="userSpaceOnUse">
      <stop offset="0.1" stop-color="#293744"/>
      <stop offset="0.78" stop-color="#394B5B"/>
    </linearGradient>
    <linearGradient id="paint2_linear_10163_15066" x1="26.2811" y1="24.3638" x2="13.4191" y2="2.33626" gradientUnits="userSpaceOnUse">
      <stop stop-color="#262C34"/>
      <stop offset="0.51" stop-color="#4C6278"/>
    </linearGradient>
    <linearGradient id="paint3_linear_10163_15066" x1="10.7389" y1="24.6522" x2="7.8824" y2="15.7657" gradientUnits="userSpaceOnUse">
      <stop offset="0.18" stop-color="#293744"/>
      <stop offset="0.91" stop-color="#394B5B"/>
    </linearGradient>
  </defs>
</svg>
